<svg width="182" height="34" viewBox="0 0 182 34" fill="none" xmlns="http://www.w3.org/2000/svg">
<path d="M9.96739 17.3129C6.05745 17.548 2.88185 21.2297 2.88185 25.1464V29.9673C2.88185 30.9809 2.05999 31.8028 1.04559 31.8028H0V33.2H17.9867V24.8512C17.9867 20.5257 14.3499 17.0496 9.96739 17.3129Z" fill="#81D8CF"/>
<path d="M26.9335 17.2993C22.7641 17.2993 19.3838 20.6796 19.3838 24.8491V33.2009H26.9335C31.103 33.2009 34.4833 29.8206 34.4833 25.6511V24.8491C34.4833 20.6796 31.103 17.2993 26.9335 17.2993Z" fill="#81D8CF"/>
<path d="M17.9876 0H0.000976562V1.39717H1.04657C2.0602 1.39717 2.88207 2.21904 2.88207 3.23267V8.05427C2.88207 11.9711 6.05842 15.6527 9.96761 15.8871C14.3509 16.1512 17.9876 12.675 17.9876 8.34878V0Z" fill="#81D8CF"/>
<path d="M26.9337 0H19.384V8.35182C19.384 12.5213 22.7643 15.9016 26.9337 15.9016C31.1032 15.9016 34.4835 12.5213 34.4835 8.35182V7.54974C34.4835 3.3803 31.1032 0 26.9337 0Z" fill="#81D8CF"/>
<path d="M56.4861 26.6489C59.7142 26.6489 62.4713 25.1619 62.4713 22.2603C62.4713 19.249 59.6054 17.6898 56.4138 17.6898H49.7757V26.6489H56.4861ZM55.7974 14.2798C59.0613 14.2798 61.5642 12.7928 61.5642 9.96349C61.5642 6.98956 58.7714 5.53836 55.6886 5.53836H49.7757V14.2798H55.7974ZM45.8947 1.94727H56.8126C62.507 1.94727 65.6628 5.28419 65.6628 9.31056C65.6628 11.9953 64.1394 14.8239 60.839 15.7675V15.8398C64.5023 16.5293 66.6057 19.1045 66.6057 22.5867C66.6057 27.7371 61.9629 30.24 57.429 30.24H45.8947V1.94727Z" fill="#241916"/>
<path d="M73.0606 1.22168H69.3607V30.2396H73.0606V1.22168Z" fill="#241916"/>
<path d="M97.9758 10.109H101.603V13.5547H101.676C103.198 10.7619 105.666 9.52832 108.386 9.52832C112.013 9.52832 115.568 11.777 115.568 17.5811V30.2401H111.868V19.2126C111.868 15.2958 110.2 13.0106 107.189 13.0106C103.851 13.0106 101.676 15.7311 101.676 19.4303V30.2401H97.9758V10.109Z" fill="#241916"/>
<path d="M134.194 15.2119C133.784 12.6268 131.938 9.59126 128.86 9.59126C124.963 9.59126 121.024 13.3658 121.024 19.7253C121.024 26.1671 125.495 29.9423 129.682 29.9423C133.005 29.9423 136.123 28.2598 138.257 24.5667L138.625 24.7722C136.369 28.342 133.579 30.4347 128.819 30.4347C123.404 30.4347 117.741 26.4136 117.741 19.7253C117.741 13.12 123.404 9.09814 128.819 9.09814C133.374 9.09814 137.067 12.4632 137.477 15.2119H134.194Z" fill="#241916"/>
<path d="M140.27 30.0244V1.30322H143.553V18.9048C144.742 13.4889 148.189 9.09876 152.743 9.09876C155.698 9.09876 158.652 10.658 158.652 15.0482V30.0244H155.37V16.0329C155.37 11.314 154.179 9.59112 152.252 9.59112C147.656 9.59112 143.717 16.0329 143.553 22.2699V30.0244H140.27Z" fill="#241916"/>
<path d="M174.205 18.3715C176.544 18.2071 177.569 16.8123 177.569 15.1297C177.569 12.6268 175.313 9.59126 172.235 9.59126C168.337 9.59126 164.398 13.3658 164.398 19.7253C164.398 21.2435 164.645 22.5973 165.096 23.8285C165.506 20.9566 167.927 18.7406 174.205 18.3715ZM165.425 24.6489C166.984 28.0543 170.101 29.9423 173.056 29.9423C176.38 29.9423 179.498 28.2598 181.632 24.5667L182 24.7722C179.744 28.342 176.954 30.4347 172.195 30.4347C166.779 30.4347 161.116 26.4136 161.116 19.7253C161.116 13.12 166.779 9.09814 172.195 9.09814C176.749 9.09814 180.852 12.4632 180.852 15.2119C180.852 17.0588 178.8 18.7406 174.246 18.8639C168.954 19.0282 165.589 20.9977 165.425 24.6489Z" fill="#241916"/>
<path d="M91.3737 17.2489C85.4387 17.4582 79.0023 19.9238 79.0023 26.1091C79.0023 27.781 79.4201 30.0799 82.1368 30.0799C87.1525 30.0799 90.4962 25.3154 91.3737 20.216V17.2489ZM79.1697 16.0785C79.1697 10.6451 83.1398 8.84766 87.5703 8.84766C91.7085 8.84766 94.7174 10.4366 94.7174 14.9089V30.1636H91.3737V22.1809C90.2451 26.1091 87.1943 30.5814 81.4687 30.5814C77.5816 30.5814 75.6593 28.5336 75.6593 25.6084C75.6593 19.3805 85.1465 16.9986 91.3737 16.8312V15.9111C91.3737 11.1047 90.1614 9.34991 86.9013 9.34991C83.5165 9.34991 79.5875 11.1047 79.5875 16.0785H79.1697Z" fill="#241916"/>
</svg>
